<?xml version="1.0" encoding="UTF-8"?>
<svg width="40" height="40" viewBox="0 0 40 40" fill="none" xmlns="http://www.w3.org/2000/svg">
  <!-- Outer circle -->
  <circle cx="20" cy="20" r="19" fill="#5E0B15" stroke="#5E0B15" stroke-width="2"/>
  
  <!-- Cross -->
  <path d="M20 10V30" stroke="white" stroke-width="3" stroke-linecap="round"/>
  <path d="M10 20H30" stroke="white" stroke-width="3" stroke-linecap="round"/>
  
  <!-- Fleur-de-lis elements (simplified) -->
  <path d="M20 12C20 12 18 10 16 12C14 14 16 16 16 16C16 16 18 14 20 16C22 14 24 16 24 16C24 16 26 14 24 12C22 10 20 12 20 12Z" fill="white"/>
  <path d="M20 28C20 28 18 30 16 28C14 26 16 24 16 24C16 24 18 26 20 24C22 26 24 24 24 24C24 24 26 26 24 28C22 30 20 28 20 28Z" fill="white"/>
</svg>
